<svg width="240" height="64" viewBox="0 0 240 64" fill="none" xmlns="http://www.w3.org/2000/svg">
<path d="M40.4172 26.8455C40.4172 26.8339 40.4172 26.8339 40.4172 26.8339C40.4172 26.8107 40.4053 26.7875 40.4053 26.7643C40.4053 26.7526 40.4053 26.741 40.3933 26.7294C40.3814 26.7062 40.3814 26.683 40.3695 26.6598C40.3695 26.6482 40.3576 26.6365 40.3576 26.6249C40.3457 26.6017 40.3338 26.5785 40.3099 26.5553C40.298 26.5437 40.298 26.532 40.2861 26.5204C40.2742 26.4972 40.2504 26.4856 40.2266 26.4624C40.2146 26.4508 40.2146 26.4508 40.2027 26.4392C40.1789 26.4159 40.1551 26.4043 40.1313 26.3927C40.1193 26.3927 40.1193 26.3811 40.1074 26.3811C40.0836 26.3695 40.0598 26.3579 40.036 26.3463C40.024 26.3463 40.0121 26.3347 40.0002 26.3347C40.0002 26.3347 40.0002 26.3347 39.9883 26.3347L37.975 25.8006L38.7613 20.0417L38.797 19.7631L38.7732 19.7399C38.7851 18.335 37.7249 17.1391 36.2477 16.9533C34.8301 16.7675 33.5435 17.5919 33.1027 18.8807H33.0551L32.5547 22.5148C32.3522 22.4567 32.1378 22.4219 31.9234 22.4219C30.8631 22.4219 29.9578 23.1301 29.7195 24.0706L29.6599 24.0822V24.117C28.6473 24.4189 27.7658 25.0807 27.2059 25.9864C27.194 26.0096 27.1702 26.0328 27.1583 26.0676L23.5129 26.4043C23.2509 26.3927 23.0126 26.5437 22.9173 26.7759C22.8935 26.8339 22.8816 26.9036 22.8816 26.9732V26.9849L22.4408 45.0974C22.4408 45.3412 22.5837 45.5618 22.8101 45.6431L26.2171 47.0015C26.2171 47.0015 26.2171 47.0015 26.2291 47.0015C26.2529 47.0131 26.2767 47.0131 26.3005 47.0247C26.3124 47.0247 26.3244 47.0364 26.3363 47.0364C26.3601 47.0364 26.3958 47.048 26.4197 47.048C26.4316 47.048 26.4316 47.048 26.4435 47.048C26.4554 47.048 26.4673 47.048 26.4792 47.048C26.4911 47.048 26.515 47.048 26.5269 47.048L40.8698 45.0974C41.1796 45.0509 41.394 44.7955 41.3821 44.4936L40.4172 26.8455ZM34.151 19.6005L34.163 19.5309C34.3059 18.5788 35.1279 17.9634 36.0928 18.0795C37.022 18.1956 37.6772 18.9852 37.57 19.8792L36.6527 26.6598L33.1385 27.0661L34.151 19.6005ZM31.9114 23.5597C32.0782 23.5597 32.245 23.5946 32.388 23.6642L32.3165 24.1635C31.9114 24.0242 31.4945 23.9429 31.0656 23.9313C31.2562 23.6991 31.566 23.5597 31.9114 23.5597ZM30.3509 25.1388L30.3866 25.1272C30.5891 25.0923 30.7321 25.0923 30.8869 25.0923C31.3277 25.0923 31.7566 25.1852 32.1497 25.3594L31.8995 27.2055L27.8135 27.6699V27.6583C27.8135 27.6351 27.8254 27.6234 27.8254 27.6002C27.8254 27.577 27.8254 27.5538 27.8254 27.5189C27.8254 27.4841 27.8373 27.4609 27.8373 27.4261L27.8492 27.3564V27.3332C27.9445 27.1939 27.9683 27.0545 28.016 26.9152C28.0517 26.8688 28.0755 26.8107 28.0874 26.7526C28.1232 26.6946 28.1589 26.6365 28.2066 26.5669C28.6831 25.8122 29.4574 25.2897 30.3509 25.1388ZM24.049 27.6467L26.0861 27.9369L26.0504 27.9601C26.0385 27.9718 26.0385 27.9718 26.0265 27.9834C26.0027 27.995 25.9908 28.0182 25.9789 28.0298C25.967 28.0414 25.9551 28.053 25.9551 28.0646C25.9431 28.0763 25.9312 28.0995 25.9193 28.1111C25.9074 28.1227 25.9074 28.1459 25.8955 28.1575C25.8836 28.1808 25.8836 28.1924 25.8717 28.2156C25.8717 28.2272 25.8598 28.2504 25.8598 28.262C25.8598 28.2852 25.8478 28.2969 25.8478 28.3201C25.8478 28.3433 25.8359 28.3549 25.8359 28.3781C25.8359 28.3897 25.824 28.4014 25.824 28.4014V45.6082L23.6202 44.7258L24.049 27.6467ZM27.0272 45.8172V28.9238L39.2616 27.5189L40.1551 44.0176L27.0272 45.8172Z" fill="#2688FF"/>
<path d="M9.26153 43.5048L3.10072 46.0878L2.62386 44.8138L5.2926 43.7848C5.42323 43.7318 5.60395 43.6643 5.83454 43.5824C6.13676 43.4749 6.43477 43.3786 6.7288 43.2935C7.0233 43.2098 7.33231 43.1231 7.65607 43.0337L3.43947 43.7524L3.02886 42.6556L6.70539 40.4944C6.03376 40.8075 5.41972 41.063 4.8635 41.2606L4.37868 41.4235L1.69308 42.3279L1.22559 41.0797L7.6453 39.188L8.20527 40.6838L4.39436 42.8107L8.70226 42.0113L9.26153 43.5048ZM10.4711 51.1804C9.58318 51.7953 8.75025 52.0971 7.97211 52.0862C7.19302 52.0739 6.55393 51.7252 6.05436 51.0403C5.55034 50.349 5.41948 49.6465 5.66131 48.9325C5.90243 48.2175 6.472 47.549 7.37 46.9272C8.25654 46.3132 9.08946 46.0123 9.86855 46.0244C10.6479 46.0344 11.2879 46.3828 11.7882 47.0691C12.2912 47.7591 12.4223 48.4618 12.181 49.1769C11.9378 49.8915 11.3677 50.5593 10.4711 51.1804ZM9.53145 49.8917C10.2026 49.4267 10.6432 49.0234 10.8532 48.6809C11.0618 48.3396 11.058 48.0206 10.8419 47.7244C10.6249 47.4269 10.3173 47.3185 9.91888 47.3995C9.51834 47.4801 8.98225 47.7527 8.31108 48.2177C7.63851 48.6834 7.19724 49.0875 6.98748 49.4297C6.77796 49.7699 6.78171 50.0886 6.99872 50.3862C7.21831 50.6873 7.52685 50.7969 7.92435 50.7149C8.32326 50.6319 8.85888 50.3574 9.53145 49.8917ZM16.2812 56.1087C15.5942 56.9323 14.8741 57.44 14.1212 57.6319C13.3672 57.8229 12.6555 57.6531 11.9864 57.1231C11.3113 56.588 10.9927 55.9451 11.0304 55.1942C11.0669 54.4424 11.4326 53.65 12.1274 52.8168C12.8135 51.9942 13.5336 51.4875 14.2879 51.2968C15.0417 51.1037 15.7538 51.2728 16.424 51.804C17.098 52.3381 17.4166 52.981 17.3801 53.7328C17.3415 54.4849 16.9751 55.2768 16.2812 56.1087ZM15.0225 55.1112C15.542 54.4885 15.8561 53.985 15.9645 53.6005C16.072 53.2172 15.9811 52.911 15.6918 52.6817C15.4013 52.4515 15.0752 52.4271 14.7132 52.6089C14.3492 52.7908 13.9075 53.193 13.3878 53.8157C12.8674 54.4395 12.5527 54.9437 12.4443 55.3281C12.3357 55.7105 12.4266 56.0167 12.7173 56.2469C13.0116 56.4801 13.3388 56.5052 13.6994 56.3227C14.061 56.1388 14.5021 55.735 15.0225 55.1112ZM17.5613 60.5111L20.3387 54.5729L21.7786 55.2127L19.5224 60.0367L22.1604 61.209L21.4993 62.2608L17.5613 60.5111ZM30.9649 57.3825L30.401 63.8958L29.0233 63.706L29.3489 60.9268C29.3625 60.7894 29.3866 60.6023 29.421 60.3655C29.466 60.0552 29.5194 59.7536 29.5805 59.4606C29.6434 59.1679 29.7106 58.8615 29.7822 58.5409L28.4467 62.5047L27.2608 62.3411L27.036 58.1624C27.003 58.8875 26.945 59.5354 26.8623 60.1068L26.7813 60.6003L26.3349 63.3352L24.9848 63.1493L26.2965 56.7391L27.9141 56.962L28.0443 61.24L29.3494 57.1598L30.9649 57.3825ZM38.4816 59.9578C38.62 61.0107 38.5008 61.8691 38.1246 62.533C37.7466 63.197 37.1299 63.5823 36.2745 63.6891C35.4114 63.7968 34.714 63.5785 34.1819 63.0343C33.6484 62.4901 33.3115 61.6856 33.1715 60.6206C33.0334 59.5692 33.1533 58.7113 33.5313 58.0476C33.9076 57.3823 34.5242 56.9962 35.381 56.8892C36.2425 56.7818 36.9401 56.9999 37.4736 57.544C38.0059 58.0898 38.3419 58.8945 38.4816 59.9578ZM36.8727 60.1588C36.768 59.3627 36.6102 58.7939 36.3993 58.4521C36.1886 58.1119 35.8983 57.965 35.5285 58.0111C35.1569 58.0574 34.9142 58.271 34.7997 58.6518C34.6838 59.0342 34.6782 59.6235 34.7828 60.4196C34.8877 61.2172 35.0455 61.7867 35.2564 62.1283C35.4657 62.4687 35.756 62.6156 36.1273 62.5693C36.5032 62.5223 36.7479 62.3087 36.8607 61.9282C36.9733 61.5462 36.9773 60.9564 36.8727 60.1588ZM45.0374 56.1762C45.2113 56.5814 45.2457 56.967 45.1404 57.3335C45.0364 57.6992 44.8283 58.0305 44.5158 58.3269L47.218 60.2067L45.5606 60.8827L43.2343 59.1257L42.8237 59.2931L43.8125 61.596L42.3506 62.1924L39.7652 56.1723L41.7087 55.3795C42.5587 55.0327 43.2591 54.9243 43.8102 55.0541C44.362 55.1819 44.7712 55.5561 45.0374 56.1762ZM43.5302 56.7911C43.4054 56.5007 43.2299 56.3234 43.004 56.2597C42.7778 56.1961 42.4892 56.2358 42.138 56.3788L41.6565 56.5755L42.4026 58.3125L42.9464 58.0905C43.2673 57.9595 43.4785 57.788 43.5794 57.5762C43.681 57.3656 43.6646 57.1039 43.5302 56.7911ZM49.0763 52.3493L52.4733 56.5394L51.2298 57.497L47.8327 53.3069L46.3535 54.4461L45.5992 53.5159L49.8526 50.2401L50.4863 51.2634L49.0763 52.3493ZM58.2598 50.3727L56 48.7245L55.0266 49.9921L57.2864 51.6404L56.3383 52.8752L50.9772 48.9649L51.9255 47.7301L53.9837 49.2312L54.9569 47.9638L52.8987 46.4625L53.8484 45.2258L59.2093 49.1361L58.2598 50.3727ZM60.8873 40.5686C61.2794 40.7137 61.587 40.9416 61.8101 41.2526C62.033 41.5634 62.155 41.9357 62.1756 42.3692C62.1957 42.8043 62.1065 43.2766 61.9077 43.7864C61.5147 44.7957 60.9009 45.4889 60.0663 45.8654L59.5183 44.8268C60.1213 44.5201 60.5462 44.0497 60.7934 43.4154C60.9126 43.1096 60.9395 42.8393 60.8747 42.6049C60.8117 42.3695 60.6598 42.2072 60.4186 42.118C60.1906 42.0336 59.9816 42.0455 59.7917 42.1532C59.6019 42.2611 59.3579 42.5014 59.0599 42.8739C58.5587 43.5082 58.0994 43.9196 57.6818 44.1085C57.2632 44.2954 56.8166 44.3011 56.3413 44.1254C55.9679 43.9874 55.6821 43.7658 55.4836 43.4608C55.2851 43.1557 55.1818 42.8016 55.1741 42.3987C55.1645 41.9967 55.2432 41.5812 55.4101 41.1522C55.7596 40.2546 56.3139 39.627 57.0731 39.2697L57.6134 40.2444C57.3592 40.3852 57.1422 40.5583 56.9622 40.7641C56.7824 40.9697 56.6433 41.1985 56.5455 41.4507C56.4357 41.7324 56.4024 41.9736 56.4457 42.1742C56.4874 42.3743 56.608 42.5112 56.8067 42.5846C56.939 42.6335 57.0645 42.6378 57.1832 42.5976C57.3028 42.5593 57.4343 42.4687 57.5781 42.3259C57.7228 42.1851 57.9156 41.9647 58.157 41.6651C58.5929 41.1137 59.0213 40.7434 59.4422 40.554C59.8638 40.3632 60.3456 40.3683 60.8873 40.5686Z" fill="#2688FF"/>
<path d="M1.66882 19.215L7.92982 21.0437L7.46794 22.2867L4.81208 21.4288C4.68004 21.3887 4.50213 21.3291 4.27856 21.2502C3.9836 21.1459 3.69893 21.0359 3.4248 20.9198C3.15114 20.8023 2.8653 20.6779 2.56683 20.5467L6.17571 22.5819L5.77797 23.6518L1.64611 23.0241C2.34771 23.1996 2.97041 23.383 3.51376 23.5749L3.97962 23.749L6.56619 24.713L6.11461 25.9282L0.103394 23.4266L0.645569 21.968L4.85866 22.704L1.12664 20.6736L1.66882 19.215ZM9.24944 13.3546C10.1156 13.9524 10.6688 14.602 10.909 15.304C11.1501 16.0047 11.0274 16.6901 10.5407 17.36C10.0515 18.0335 9.43086 18.3772 8.67847 18.3906C7.9263 18.4041 7.11211 18.1086 6.23564 17.504C5.36947 16.9064 4.81629 16.2566 4.5761 15.5546C4.33592 14.8527 4.45882 14.1673 4.94434 13.4986C5.43455 12.8239 6.05538 12.4803 6.80661 12.468C7.559 12.4545 8.3732 12.75 9.24944 13.3546ZM8.33645 14.6118C7.68073 14.1594 7.15729 13.8947 6.76587 13.8176C6.3768 13.74 6.07715 13.8461 5.86693 14.1352C5.65694 14.4245 5.65413 14.735 5.85827 15.0672C6.06381 15.4001 6.49455 15.7928 7.15003 16.245C7.80574 16.6974 8.32825 16.9623 8.71733 17.0397C9.10781 17.1182 9.40816 17.0125 9.61814 16.7234C9.83281 16.428 9.83632 16.1152 9.62915 15.7846C9.4229 15.4551 8.99216 15.064 8.33645 14.6118ZM15.3372 8.09414C16.0077 8.8959 16.3623 9.66617 16.4012 10.4052C16.441 11.1433 16.1348 11.7714 15.4819 12.29C14.8257 12.8116 14.1332 12.9807 13.4047 12.7975C12.6762 12.6145 11.9727 12.1173 11.2943 11.3062C10.6238 10.5044 10.2692 9.73416 10.2303 8.99515C10.1917 8.25613 10.4981 7.62778 11.1496 7.11031C11.8072 6.58782 12.4997 6.41875 13.227 6.60287C13.9553 6.78586 14.6588 7.28302 15.3372 8.09414ZM14.1124 9.06725C13.6049 8.46034 13.1732 8.06881 12.8171 7.89244C12.4634 7.7163 12.1457 7.74026 11.8639 7.96409C11.582 8.18814 11.494 8.48658 11.5996 8.85985C11.7063 9.23426 12.0135 9.72481 12.521 10.3317C13.0285 10.9386 13.459 11.3299 13.813 11.5061C14.1676 11.6833 14.486 11.6601 14.7676 11.4362C15.0556 11.2074 15.145 10.9069 15.0359 10.5346C14.9278 10.1631 14.6199 9.67416 14.1124 9.06725ZM19.8141 9.28583L17.1058 3.49896L18.5097 2.87494L20.71 7.57667L23.2823 6.43312L23.6522 7.57941L19.8141 9.28583ZM29.8837 0.0678711L31.163 6.31493L29.82 6.50043L29.3518 3.812C29.3263 3.67944 29.2968 3.49828 29.2636 3.26898C29.2196 2.96598 29.1858 2.66937 29.1624 2.37892C29.1407 2.08824 29.1191 1.78387 29.0981 1.46559L28.9466 5.52664L27.7904 5.68612L26.4211 1.83498C26.5915 2.52106 26.7173 3.14303 26.7983 3.70089L26.8589 4.18345L27.1986 6.86207L25.8855 7.04323L25.333 0.695772L26.9092 0.478334L28.2181 4.45017L28.3075 0.285309L29.8837 0.0678711ZM38.7495 3.8444C38.6144 4.87044 38.2851 5.65121 37.7616 6.18716C37.2398 6.72357 36.5612 6.93919 35.7259 6.83469C34.8859 6.7295 34.2836 6.35623 33.9184 5.7151C33.5534 5.07396 33.4394 4.23433 33.5761 3.19642C33.7115 2.17061 34.0408 1.38961 34.5643 0.85366C35.0877 0.317708 35.7661 0.101867 36.6 0.206365C37.4414 0.311776 38.0437 0.68482 38.4073 1.32595C38.7725 1.96709 38.8865 2.80649 38.7495 3.8444ZM37.1822 3.64818C37.2848 2.87152 37.2791 2.29678 37.1654 1.92374C37.053 1.55252 36.8166 1.34421 36.4558 1.29903C36.0953 1.25385 35.8123 1.39714 35.6072 1.72866C35.4021 2.06178 35.2481 2.61644 35.1458 3.3931C35.0435 4.16953 35.0484 4.74359 35.1608 5.11481C35.2729 5.48785 35.5093 5.69685 35.8699 5.74202C36.2383 5.78811 36.5235 5.64437 36.7257 5.31102C36.9278 4.97905 37.0799 4.42462 37.1822 3.64818ZM46.7276 5.41347C46.5582 5.80728 46.3067 6.09362 45.9734 6.2725C45.6417 6.45206 45.2626 6.53762 44.8366 6.52918L45.3429 9.64336L43.7291 8.98306L43.3931 6.20701L42.9933 6.04365L42.0271 8.28671L40.6024 7.70375L43.1284 1.83932L45.0218 2.61393C45.8498 2.95275 46.4062 3.35294 46.6911 3.81428C46.976 4.27586 46.9882 4.80884 46.7276 5.41347ZM45.2601 4.81295C45.3816 4.53094 45.3879 4.29114 45.279 4.09401C45.1702 3.89665 44.9445 3.72804 44.6022 3.58795L44.1336 3.39629L43.4048 5.08857L43.9334 5.30486C44.2471 5.43309 44.514 5.45933 44.7336 5.38335C44.9534 5.30737 45.129 5.11732 45.2601 4.81295ZM52.7936 8.5799L49.4769 12.6583L48.2678 11.724L51.5847 7.6458L50.1455 6.53397L50.8824 5.62794L55.023 8.82677L54.1671 9.64107L52.7936 8.5799ZM54.3539 17.9274L56.5596 16.3267L55.6145 15.0896L53.4086 16.6904L52.4858 15.4825L57.7198 11.6838L58.6426 12.8917L56.6331 14.3501L57.5784 15.5872L59.5879 14.1288L60.5093 15.3348L55.2753 19.1335L54.3539 17.9274ZM59.903 25.1675C59.5219 25.3073 59.1471 25.334 58.7784 25.2476C58.4092 25.1597 58.073 24.9642 57.7701 24.6612C57.4679 24.3561 57.2209 23.955 57.0287 23.4574C56.6483 22.4724 56.6387 21.5796 57.0002 20.7788L58.0876 21.1954C57.8507 21.7984 57.8514 22.409 58.0901 23.0269C58.2051 23.3244 58.3638 23.5398 58.5661 23.6726C58.7679 23.804 58.9867 23.8266 59.2222 23.7401C59.4446 23.6584 59.59 23.5185 59.6579 23.3205C59.7258 23.1225 59.7448 22.7934 59.715 22.3337C59.6619 21.5554 59.7258 20.9666 59.9067 20.5668C60.0877 20.1671 60.4108 19.8819 60.8762 19.711C61.2397 19.5777 61.5948 19.5599 61.9413 19.6576C62.2885 19.7568 62.5982 19.9506 62.8707 20.239C63.1437 20.5289 63.3604 20.8821 63.5215 21.2988C63.8602 22.176 63.8701 22.984 63.551 23.7223L62.5095 23.3472C62.6041 23.0844 62.6485 22.8213 62.6432 22.558C62.6396 22.2954 62.5902 22.041 62.495 21.7943C62.3889 21.5194 62.2538 21.322 62.0897 21.2027C61.9259 21.0831 61.747 21.059 61.5536 21.1299C61.4242 21.1774 61.3296 21.2527 61.2697 21.3556C61.2088 21.4603 61.1721 21.6097 61.159 21.8039C61.1475 21.9974 61.1529 22.2803 61.1753 22.6522C61.2219 23.3276 61.154 23.8672 60.9712 24.2708C60.7884 24.6744 60.4323 24.9733 59.903 25.1675Z" fill="#2688FF"/>
<path d="M0.0620117 32.6423C0.0620117 31.2656 1.20723 30.1494 2.62002 30.1494C4.03258 30.1494 5.17779 31.2656 5.17779 32.6423C5.17779 34.019 4.03258 35.1352 2.62002 35.1354C1.20746 35.1354 0.0622458 34.0193 0.0620117 32.6423ZM58.7955 32.6423C58.7955 31.2656 59.9407 30.1494 61.3533 30.1494C62.7659 30.1494 63.9111 31.2656 63.9113 32.6423C63.9113 34.019 62.7661 35.1352 61.3533 35.1354C59.9407 35.1354 58.7955 34.0193 58.7955 32.6423Z" fill="#2688FF"/>
<path d="M77.7773 24.0312L82.5 35.5273H82.6992L87.4102 24.0312H91.7578V41H88.3359V29.8789H88.1953L83.7656 40.918H81.4102L76.9922 29.8555H76.8516V41H73.4414V24.0312H77.7773ZM109.545 32.5156C109.545 34.3203 109.201 35.8789 108.513 37.1914C107.834 38.5039 106.892 39.5078 105.689 40.2031C104.494 40.8906 103.138 41.2344 101.623 41.2344C100.107 41.2344 98.7477 40.8906 97.5445 40.2031C96.3492 39.5078 95.4078 38.5039 94.7203 37.1914C94.0406 35.8711 93.7008 34.3125 93.7008 32.5156C93.7008 30.7109 94.0406 29.1523 94.7203 27.8398C95.4078 26.5195 96.3492 25.5156 97.5445 24.8281C98.7477 24.1406 100.107 23.7969 101.623 23.7969C103.138 23.7969 104.494 24.1406 105.689 24.8281C106.892 25.5156 107.834 26.5195 108.513 27.8398C109.201 29.1523 109.545 30.7109 109.545 32.5156ZM105.982 32.5156C105.982 31.3203 105.802 30.3047 105.443 29.4688C105.091 28.6328 104.587 28 103.931 27.5703C103.275 27.1328 102.505 26.9141 101.623 26.9141C100.748 26.9141 99.982 27.1328 99.3258 27.5703C98.6773 28 98.1695 28.6328 97.8023 29.4688C97.443 30.3047 97.2633 31.3203 97.2633 32.5156C97.2633 33.7031 97.443 34.7148 97.8023 35.5508C98.1695 36.3789 98.6773 37.0117 99.3258 37.4492C99.982 37.8867 100.748 38.1094 101.623 38.1172C102.505 38.1094 103.275 37.8867 103.931 37.4492C104.587 37.0117 105.091 36.3789 105.443 35.5508C105.802 34.7148 105.982 33.7031 105.982 32.5156ZM127.015 32.5156C127.015 34.3203 126.671 35.8789 125.984 37.1914C125.304 38.5039 124.362 39.5078 123.159 40.2031C121.964 40.8906 120.609 41.2344 119.093 41.2344C117.577 41.2344 116.218 40.8906 115.015 40.2031C113.82 39.5078 112.878 38.5039 112.191 37.1914C111.511 35.8711 111.171 34.3125 111.171 32.5156C111.171 30.7109 111.511 29.1523 112.191 27.8398C112.878 26.5195 113.82 25.5156 115.015 24.8281C116.218 24.1406 117.577 23.7969 119.093 23.7969C120.609 23.7969 121.964 24.1406 123.159 24.8281C124.362 25.5156 125.304 26.5195 125.984 27.8398C126.671 29.1523 127.015 30.7109 127.015 32.5156ZM123.452 32.5156C123.452 31.3203 123.273 30.3047 122.913 29.4688C122.562 28.6328 122.058 28 121.402 27.5703C120.745 27.1328 119.976 26.9141 119.093 26.9141C118.218 26.9141 117.452 27.1328 116.796 27.5703C116.148 28 115.64 28.6328 115.273 29.4688C114.913 30.3047 114.734 31.3203 114.734 32.5156C114.734 33.7031 114.913 34.7148 115.273 35.5508C115.64 36.3789 116.148 37.0117 116.796 37.4492C117.452 37.8867 118.218 38.1094 119.093 38.1172C119.976 38.1094 120.745 37.8867 121.402 37.4492C122.058 37.0117 122.562 36.3789 122.913 35.5508C123.273 34.7148 123.452 33.7031 123.452 32.5156ZM128.97 24.0312H132.485V38.0938H139.786V41H128.97V24.0312ZM145.807 24.0312L150.53 35.5273H150.729L155.44 24.0312H159.787V41H156.366V29.8789H156.225L151.795 40.918H149.44L145.022 29.8555H144.881V41H141.471V24.0312H145.807ZM177.574 32.5156C177.574 34.3203 177.23 35.8789 176.543 37.1914C175.863 38.5039 174.922 39.5078 173.719 40.2031C172.523 40.8906 171.168 41.2344 169.652 41.2344C168.137 41.2344 166.777 40.8906 165.574 40.2031C164.379 39.5078 163.438 38.5039 162.75 37.1914C162.07 35.8711 161.73 34.3125 161.73 32.5156C161.73 30.7109 162.07 29.1523 162.75 27.8398C163.438 26.5195 164.379 25.5156 165.574 24.8281C166.777 24.1406 168.137 23.7969 169.652 23.7969C171.168 23.7969 172.523 24.1406 173.719 24.8281C174.922 25.5156 175.863 26.5195 176.543 27.8398C177.23 29.1523 177.574 30.7109 177.574 32.5156ZM174.012 32.5156C174.012 31.3203 173.832 30.3047 173.473 29.4688C173.121 28.6328 172.617 28 171.961 27.5703C171.305 27.1328 170.535 26.9141 169.652 26.9141C168.777 26.9141 168.012 27.1328 167.355 27.5703C166.707 28 166.199 28.6328 165.832 29.4688C165.473 30.3047 165.293 31.3203 165.293 32.5156C165.293 33.7031 165.473 34.7148 165.832 35.5508C166.199 36.3789 166.707 37.0117 167.355 37.4492C168.012 37.8867 168.777 38.1094 169.652 38.1172C170.535 38.1094 171.305 37.8867 171.961 37.4492C172.617 37.0117 173.121 36.3789 173.473 35.5508C173.832 34.7148 174.012 33.7031 174.012 32.5156ZM179.529 24.0312H186.162C187.435 24.0312 188.529 24.2578 189.443 24.7109C190.357 25.1562 191.052 25.7969 191.529 26.6328C192.005 27.4688 192.244 28.4453 192.244 29.5625C192.244 30.6797 192.002 31.6445 191.517 32.457C191.041 33.2695 190.338 33.8945 189.408 34.332C188.486 34.7617 187.377 34.9766 186.08 34.9766H181.591V32.1055H185.529C186.216 32.1055 186.791 32.0117 187.252 31.8242C187.713 31.6289 188.056 31.3477 188.283 30.9805C188.509 30.6055 188.623 30.1328 188.623 29.5625C188.623 28.9922 188.509 28.5078 188.283 28.1094C188.056 27.7109 187.709 27.4141 187.24 27.2188C186.779 27.0234 186.205 26.9258 185.517 26.9258H183.045V41H179.529V24.0312ZM192.853 41H188.939L184.826 33.2891H188.634L192.853 41ZM193.413 24.0312H207.312V26.9375H202.109V41H198.628V26.9375H193.413V24.0312ZM208.915 24.0312H212.43V31.0625H219.79V24.0312H223.305V41H219.79V33.957H212.43V41H208.915V24.0312ZM234.776 28.8828C234.737 28.4297 234.596 28.043 234.354 27.7227C234.112 27.4023 233.776 27.1602 233.346 26.9961C232.924 26.832 232.424 26.75 231.846 26.75C231.268 26.75 230.772 26.832 230.358 26.9961C229.944 27.1602 229.627 27.3906 229.409 27.6875C229.19 27.9766 229.08 28.3086 229.08 28.6836C229.065 29.2617 229.299 29.7148 229.784 30.043C230.268 30.3633 230.936 30.6211 231.788 30.8164L233.311 31.1797C234.913 31.5469 236.159 32.1289 237.049 32.9258C237.948 33.7227 238.397 34.8008 238.397 36.1602C238.397 37.1914 238.135 38.0898 237.612 38.8555C237.096 39.6211 236.342 40.2109 235.35 40.625C234.366 41.0312 233.19 41.2344 231.823 41.2344C230.448 41.2422 229.256 41.0352 228.248 40.6133C227.248 40.1836 226.467 39.5586 225.905 38.7383C225.35 37.9102 225.053 36.8984 225.014 35.7031H228.436C228.475 36.2578 228.639 36.7305 228.928 37.1211C229.217 37.5039 229.604 37.793 230.088 37.9883C230.58 38.1758 231.147 38.2695 231.788 38.2695C232.397 38.2695 232.932 38.1797 233.393 38C233.854 37.8203 234.209 37.5703 234.459 37.25C234.709 36.9297 234.834 36.5586 234.834 36.1367C234.834 35.7617 234.725 35.4414 234.506 35.1758C234.288 34.9102 233.967 34.6875 233.545 34.5078C233.131 34.3281 232.596 34.1562 231.94 33.9922L230.077 33.5469C228.592 33.1797 227.452 32.6211 226.655 31.8711C225.858 31.1133 225.463 30.1289 225.471 28.918C225.471 27.9102 225.745 27.0156 226.291 26.2344C226.838 25.4531 227.596 24.8516 228.565 24.4297C229.541 24.0078 230.647 23.7969 231.881 23.7969C233.116 23.7969 234.205 24.0117 235.151 24.4414C236.104 24.8633 236.842 25.4609 237.366 26.2344C237.889 27.0078 238.155 27.8906 238.163 28.8828H234.776Z" fill="#2688FF"/>
</svg>
