<svg width="40" height="40" viewBox="0 0 40 40" fill="none" xmlns="http://www.w3.org/2000/svg">
<path d="M11.6666 36.6667C10.75 36.6667 9.96496 36.34 9.31163 35.6867C8.65829 35.0333 8.33218 34.2489 8.33329 33.3333C8.33329 32.4167 8.65996 31.6317 9.31329 30.9783C9.96663 30.325 10.7511 29.9989 11.6666 30C12.5833 30 13.3683 30.3267 14.0216 30.98C14.675 31.6333 15.0011 32.4178 15 33.3333C15 34.25 14.6733 35.035 14.02 35.6883C13.3666 36.3417 12.5822 36.6678 11.6666 36.6667ZM28.3333 36.6667C27.4166 36.6667 26.6316 36.34 25.9783 35.6867C25.325 35.0333 24.9988 34.2489 25 33.3333C25 32.4167 25.3266 31.6317 25.98 30.9783C26.6333 30.325 27.4177 29.9989 28.3333 30C29.25 30 30.035 30.3267 30.6883 30.98C31.3416 31.6333 31.6677 32.4178 31.6666 33.3333C31.6666 34.25 31.34 35.035 30.6866 35.6883C30.0333 36.3417 29.2488 36.6678 28.3333 36.6667ZM11.6666 28.3333C10.4166 28.3333 9.47218 27.7844 8.83329 26.6867C8.1944 25.5889 8.16663 24.4989 8.74996 23.4167L11 19.3333L4.99996 6.66665H3.29163C2.8194 6.66665 2.43051 6.50665 2.12496 6.18665C1.8194 5.86665 1.66663 5.4711 1.66663 4.99999C1.66663 4.52776 1.82663 4.13165 2.14663 3.81165C2.46663 3.49165 2.86218 3.33221 3.33329 3.33332H6.04163C6.34718 3.33332 6.63885 3.41665 6.91663 3.58332C7.1944 3.74999 7.40274 3.9861 7.54163 4.29165L8.66663 6.66665H33.25C34 6.66665 34.5138 6.94443 34.7916 7.49999C35.0694 8.05554 35.0555 8.63888 34.75 9.24999L28.8333 19.9167C28.5277 20.4722 28.125 20.9028 27.625 21.2083C27.125 21.5139 26.5555 21.6667 25.9166 21.6667H13.5L11.6666 25H30.0416C30.5138 25 30.9027 25.16 31.2083 25.48C31.5138 25.8 31.6666 26.1955 31.6666 26.6667C31.6666 27.1389 31.5066 27.535 31.1866 27.855C30.8666 28.175 30.4711 28.3344 30 28.3333H11.6666Z" fill="white"/>
</svg>
