<svg width="48" height="48" viewBox="0 0 48 48" fill="none" xmlns="http://www.w3.org/2000/svg">
<path d="M1.42009 3.65999C1.23469 3.84502 1.08759 4.0648 0.987228 4.30674C0.886865 4.54869 0.835205 4.80806 0.835205 5.06999C0.835205 5.33193 0.886865 5.59129 0.987228 5.83324C1.08759 6.07519 1.23469 6.29496 1.42009 6.47999L8.78009 13.84L13.2001 23.16L10.5001 28.06C10.1201 28.72 9.94009 29.52 10.0201 30.36C10.2201 32.48 12.1401 34 14.2601 34H28.9201L31.6801 36.76C30.9933 37.2523 30.4804 37.9498 30.2152 38.7521C29.9499 39.5544 29.9459 40.4201 30.2037 41.2248C30.4616 42.0295 30.968 42.7317 31.6502 43.2303C32.3323 43.729 33.1551 43.9985 34.0001 44C35.3401 44 36.5201 43.34 37.2401 42.32L41.5001 46.58C41.874 46.9539 42.3812 47.164 42.9101 47.164C43.4389 47.164 43.9461 46.9539 44.3201 46.58C44.694 46.206 44.9041 45.6988 44.9041 45.17C44.9041 44.6411 44.694 44.1339 44.3201 43.76L4.24009 3.65999C4.05507 3.47458 3.83529 3.32749 3.59334 3.22713C3.3514 3.12676 3.09203 3.0751 2.83009 3.0751C2.56816 3.0751 2.30879 3.12676 2.06684 3.22713C1.8249 3.32749 1.60512 3.47458 1.42009 3.65999ZM14.0001 30L16.2001 26H20.9201L24.9201 30H14.0001ZM32.1001 25.88C33.1801 25.6 34.0801 24.9 34.6001 23.94L41.7601 10.96C42.5001 9.63999 41.5201 7.99999 40.0001 7.99999H14.2401L32.1001 25.88ZM14.0001 36C11.8001 36 10.0201 37.8 10.0201 40C10.0201 42.2 11.8001 44 14.0001 44C16.2001 44 18.0001 42.2 18.0001 40C18.0001 37.8 16.2001 36 14.0001 36Z" fill="#E2E8F0"/>
</svg>
