<svg width="64" height="64" viewBox="0 0 64 64" fill="none" xmlns="http://www.w3.org/2000/svg">
<path d="M22.6666 40H41.3333M22.6666 48H32M50.6666 5.33337H13.3333C12.626 5.33337 11.9478 5.61433 11.4477 6.11442C10.9476 6.61452 10.6666 7.2928 10.6666 8.00004V56C10.6666 56.7073 10.9476 57.3856 11.4477 57.8857C11.9478 58.3858 12.626 58.6667 13.3333 58.6667H50.6666C51.3739 58.6667 52.0522 58.3858 52.5522 57.8857C53.0523 57.3856 53.3333 56.7073 53.3333 56V8.00004C53.3333 7.2928 53.0523 6.61452 52.5522 6.11442C52.0522 5.61433 51.3739 5.33337 50.6666 5.33337Z" stroke="#1F2937" stroke-width="4" stroke-linecap="round" stroke-linejoin="round"/>
<path d="M40 17.3334L29.3333 28L24 22.6667" stroke="#1F2937" stroke-width="4" stroke-linecap="round" stroke-linejoin="round"/>
</svg>
