<svg width="24" height="24" viewBox="0 0 24 24" fill="#9CA3AF" xmlns="http://www.w3.org/2000/svg">
<path d="M2.9 7.14999C3.15 6.89999 3.446 6.77499 3.788 6.77499C4.13 6.77499 4.42567 6.89999 4.675 7.14999L12 14.475L19.35 7.12499C19.5833 6.89166 19.875 6.77499 20.225 6.77499C20.575 6.77499 20.875 6.89999 21.125 7.14999C21.375 7.39999 21.5 7.69599 21.5 8.03799C21.5 8.37999 21.375 8.67566 21.125 8.92499L12.7 17.325C12.6 17.425 12.4917 17.496 12.375 17.538C12.2583 17.58 12.1333 17.6007 12 17.6C11.8667 17.6 11.7417 17.579 11.625 17.537C11.5083 17.495 11.4 17.4243 11.3 17.325L2.875 8.89999C2.64167 8.66666 2.525 8.37899 2.525 8.03699C2.525 7.69499 2.65 7.39933 2.9 7.14999Z" fill="current"/>
</svg>
