<svg width="16" height="16" viewBox="0 0 16 16" fill="none" xmlns="http://www.w3.org/2000/svg">
<g clip-path="url(#clip0_304_2847)">
<path fill-rule="evenodd" clip-rule="evenodd" d="M8 2C8.17681 2 8.34638 2.07024 8.4714 2.19526C8.59643 2.32029 8.66667 2.48986 8.66667 2.66667C8.66667 2.84348 8.59643 3.01305 8.4714 3.13807C8.34638 3.2631 8.17681 3.33333 8 3.33333H7.33333V4H9.176C9.38289 4.00001 9.58694 4.04817 9.772 4.14067L11.9293 5.21933C12.1509 5.33004 12.3372 5.50026 12.4674 5.71092C12.5977 5.92157 12.6667 6.16434 12.6667 6.412V8H13.3333V7.33333C13.3333 7.15652 13.4036 6.98695 13.5286 6.86193C13.6536 6.7369 13.8232 6.66667 14 6.66667C14.1768 6.66667 14.3464 6.7369 14.4714 6.86193C14.5964 6.98695 14.6667 7.15652 14.6667 7.33333V10C14.6667 10.1768 14.5964 10.3464 14.4714 10.4714C14.3464 10.5964 14.1768 10.6667 14 10.6667C13.8232 10.6667 13.6536 10.5964 13.5286 10.4714C13.4036 10.3464 13.3333 10.1768 13.3333 10V9.33333H12.6667V10.3333C12.6667 10.5403 12.6185 10.7445 12.5259 10.9296C12.4333 11.1148 12.2989 11.2758 12.1333 11.4L9.91133 13.0667C9.68054 13.2398 9.39983 13.3333 9.11133 13.3333H3.33333C2.97971 13.3333 2.64057 13.1929 2.39052 12.9428C2.14048 12.6928 2 12.3536 2 12V5.33333C2 4.97971 2.14048 4.64057 2.39052 4.39052C2.64057 4.14048 2.97971 4 3.33333 4H6V3.33333H5.33333C5.15652 3.33333 4.98695 3.2631 4.86193 3.13807C4.7369 3.01305 4.66667 2.84348 4.66667 2.66667C4.66667 2.48986 4.7369 2.32029 4.86193 2.19526C4.98695 2.07024 5.15652 2 5.33333 2H8ZM7.34267 6.42867C7.20264 6.34461 7.03664 6.31488 6.87615 6.34511C6.71566 6.37534 6.57185 6.46343 6.472 6.59267L6.42867 6.65733L5.43467 8.31333C5.37658 8.40989 5.34366 8.51948 5.33892 8.63207C5.33417 8.74465 5.35776 8.85662 5.40751 8.95773C5.45727 9.05883 5.5316 9.14583 5.6237 9.21075C5.7158 9.27568 5.82272 9.31645 5.93467 9.32933L6.012 9.33333H6.82267L6.42867 9.99067C6.34184 10.1365 6.31389 10.3099 6.35052 10.4756C6.38714 10.6413 6.48557 10.7868 6.62576 10.8825C6.76595 10.9781 6.93733 11.0167 7.10497 10.9903C7.27262 10.964 7.42391 10.8747 7.528 10.7407L7.572 10.6767L8.56533 9.02C8.62342 8.92344 8.65634 8.81385 8.66108 8.70126C8.66583 8.58868 8.64224 8.47671 8.59249 8.37561C8.54273 8.2745 8.4684 8.1875 8.3763 8.12258C8.2842 8.05765 8.17728 8.01688 8.06533 8.004L7.988 8H7.17733L7.57133 7.34267C7.66215 7.19119 7.68915 7.00987 7.6464 6.8385C7.60365 6.66714 7.49466 6.51974 7.34333 6.42867H7.34267Z" fill="#4B5563"/>
</g>
<defs>
<clipPath id="clip0_304_2847">
<rect width="16" height="16" fill="white"/>
</clipPath>
</defs>
</svg>
