<svg width="12" height="12" viewBox="0 0 12 12" fill="none" xmlns="http://www.w3.org/2000/svg">
<path d="M7.56241 10.55L3.34991 6.35001C3.29991 6.30001 3.26441 6.24585 3.24341 6.18751C3.22241 6.12918 3.21208 6.06668 3.21241 6.00001C3.21241 5.93335 3.22274 5.87085 3.24341 5.81251C3.26408 5.75418 3.29958 5.70001 3.34991 5.65001L7.56241 1.43751C7.67908 1.32085 7.82491 1.26251 7.99991 1.26251C8.17491 1.26251 8.32491 1.32501 8.44991 1.45001C8.57491 1.57501 8.63741 1.72085 8.63741 1.88751C8.63741 2.05418 8.57491 2.20001 8.44991 2.32501L4.77491 6.00001L8.44991 9.67501C8.56658 9.79168 8.62491 9.93551 8.62491 10.1065C8.62491 10.2775 8.56241 10.4253 8.43741 10.55C8.31241 10.675 8.16658 10.7375 7.99991 10.7375C7.83324 10.7375 7.68741 10.675 7.56241 10.55Z" fill="black"/>
</svg>
