<svg width="17" height="16" viewBox="0 0 17 16" fill="none" xmlns="http://www.w3.org/2000/svg">
<g clip-path="url(#clip0_304_2938)">
<path d="M1920.5 256V1024H256.5V256H1920.5ZM2048.5 832H2176.5V448H2048.5V160C2048.5 150.667 2045.5 143 2039.5 137C2033.5 131 2025.83 128 2016.5 128H160.5C151.167 128 143.5 131 137.5 137C131.5 143 128.5 150.667 128.5 160V1120C128.5 1129.33 131.5 1137 137.5 1143C143.5 1149 151.167 1152 160.5 1152H2016.5C2025.83 1152 2033.5 1149 2039.5 1143C2045.5 1137 2048.5 1129.33 2048.5 1120V832ZM2304.5 448V832C2304.5 867.333 2292 897.5 2267 922.5C2242 947.5 2211.83 960 2176.5 960V1120C2176.5 1164 2160.83 1201.67 2129.5 1233C2098.17 1264.33 2060.5 1280 2016.5 1280H160.5C116.5 1280 78.8333 1264.33 47.5 1233C16.1667 1201.67 0.5 1164 0.5 1120V160C0.5 116 16.1667 78.3333 47.5 47C78.8333 15.6667 116.5 0 160.5 0H2016.5C2060.5 0 2098.17 15.6667 2129.5 47C2160.83 78.3333 2176.5 116 2176.5 160V320C2211.83 320 2242 332.5 2267 357.5C2292 382.5 2304.5 412.667 2304.5 448Z" fill="#4B5563"/>
<path d="M4.50004 10C4.32323 10 4.15366 9.92976 4.02864 9.80474C3.90361 9.67971 3.83337 9.51014 3.83337 9.33333V6.66667C3.83337 6.48986 3.90361 6.32029 4.02864 6.19526C4.15366 6.07024 4.32323 6 4.50004 6H8.50004V10H4.50004Z" fill="#4B5563"/>
<path fill-rule="evenodd" clip-rule="evenodd" d="M12.5 4H3.83337C3.30294 4 2.79423 4.21071 2.41916 4.58579C2.04409 4.96086 1.83337 5.46957 1.83337 6V10C1.83337 10.5304 2.04409 11.0391 2.41916 11.4142C2.79423 11.7893 3.30294 12 3.83337 12H12.5C13.0305 12 13.5392 11.7893 13.9143 11.4142C14.2893 11.0391 14.5 10.5304 14.5 10C14.6769 10 14.8464 9.92976 14.9714 9.80474C15.0965 9.67971 15.1667 9.51014 15.1667 9.33333V6.66667C15.1667 6.48986 15.0965 6.32029 14.9714 6.19526C14.8464 6.07024 14.6769 6 14.5 6C14.5 5.46957 14.2893 4.96086 13.9143 4.58579C13.5392 4.21071 13.0305 4 12.5 4ZM12.5 5.33333H3.83337C3.65656 5.33333 3.48699 5.40357 3.36197 5.5286C3.23695 5.65362 3.16671 5.82319 3.16671 6V10C3.16671 10.1768 3.23695 10.3464 3.36197 10.4714C3.48699 10.5964 3.65656 10.6667 3.83337 10.6667H12.5C12.6769 10.6667 12.8464 10.5964 12.9714 10.4714C13.0965 10.3464 13.1667 10.1768 13.1667 10V6C13.1667 5.82319 13.0965 5.65362 12.9714 5.5286C12.8464 5.40357 12.6769 5.33333 12.5 5.33333Z" fill="#4B5563"/>
</g>
<defs>
<clipPath id="clip0_304_2938">
<rect width="16" height="16" fill="white" transform="translate(0.5)"/>
</clipPath>
</defs>
</svg>
