<svg width="17" height="16" viewBox="0 0 17 16" fill="none" xmlns="http://www.w3.org/2000/svg">
<path d="M5.2666 14.0667C5.09993 13.9 5.0166 13.7027 5.0166 13.4747C5.0166 13.2467 5.09993 13.0496 5.2666 12.8833L10.1499 8.00001L5.24993 3.10001C5.09438 2.94445 5.0166 2.75001 5.0166 2.51667C5.0166 2.28334 5.09993 2.08334 5.2666 1.91667C5.43327 1.75001 5.6306 1.66667 5.8586 1.66667C6.0866 1.66667 6.28371 1.75001 6.44993 1.91667L12.0499 7.53334C12.1166 7.60001 12.1639 7.67223 12.1919 7.75001C12.2199 7.82778 12.2337 7.91112 12.2333 8.00001C12.2333 8.08889 12.2193 8.17223 12.1913 8.25001C12.1633 8.32778 12.1162 8.40001 12.0499 8.46667L6.43327 14.0833C6.27771 14.2389 6.08593 14.3167 5.85793 14.3167C5.62993 14.3167 5.43282 14.2333 5.2666 14.0667Z" fill="current"/>
</svg>
