<svg width="18" height="18" viewBox="0 0 18 18" fill="none" xmlns="http://www.w3.org/2000/svg">
<path d="M16.1 17.5125L10.5 11.9125C9.99995 12.3125 9.42495 12.6292 8.77495 12.8625C8.12495 13.0959 7.43328 13.2125 6.69995 13.2125C4.88328 13.2125 3.34595 12.5832 2.08795 11.3245C0.829951 10.0659 0.200618 8.52852 0.199951 6.71252C0.199951 4.89586 0.829285 3.35852 2.08795 2.10052C3.34662 0.842524 4.88395 0.213191 6.69995 0.212524C8.51662 0.212524 10.054 0.841858 11.312 2.10052C12.57 3.35919 13.1993 4.89652 13.2 6.71252C13.2 7.44586 13.0833 8.13752 12.85 8.78752C12.6166 9.43752 12.3 10.0125 11.9 10.5125L17.525 16.1375C17.7083 16.3209 17.8 16.5459 17.8 16.8125C17.8 17.0792 17.7 17.3125 17.5 17.5125C17.3166 17.6959 17.0833 17.7875 16.8 17.7875C16.5166 17.7875 16.2833 17.6959 16.1 17.5125ZM6.69995 11.2125C7.94995 11.2125 9.01262 10.7749 9.88795 9.89952C10.7633 9.02419 11.2006 7.96186 11.2 6.71252C11.2 5.46252 10.7623 4.39986 9.88695 3.52452C9.01162 2.64919 7.94928 2.21186 6.69995 2.21252C5.44995 2.21252 4.38728 2.65019 3.51195 3.52552C2.63662 4.40086 2.19928 5.46319 2.19995 6.71252C2.19995 7.96252 2.63762 9.02519 3.51295 9.90052C4.38828 10.7759 5.45062 11.2132 6.69995 11.2125Z" fill="#374151"/>
</svg>
