<svg width="64" height="64" viewBox="0 0 64 64" fill="none" xmlns="http://www.w3.org/2000/svg">
<path d="M41.3334 37.3333H39.2267L38.4801 36.6133C41.1837 33.4774 42.6697 29.4739 42.6667 25.3333C42.6667 20.7362 40.8406 16.3274 37.5899 13.0768C34.3393 9.82618 29.9305 8 25.3334 8C16.2134 8 8.74674 15.04 8.08008 24H13.4667C14.1334 18 19.1467 13.3333 25.3334 13.3333C31.9734 13.3333 37.3334 18.6933 37.3334 25.3333C37.3334 31.9733 31.9734 37.3333 25.3334 37.3333C24.8801 37.3333 24.4534 37.2533 24.0001 37.2V42.5867C24.4534 42.64 24.8801 42.6667 25.3334 42.6667C29.6267 42.6667 33.5734 41.0933 36.6134 38.48L37.3334 39.2267V41.3333L50.6667 54.64L54.6401 50.6667L41.3334 37.3333Z" fill="#E2E8F0"/>
<path d="M17.2532 28.8533L10.6665 35.44L4.07986 28.8533L2.18652 30.7467L8.77319 37.3333L2.18652 43.92L4.07986 45.8133L10.6665 39.2267L17.2532 45.8133L19.1465 43.92L12.5599 37.3333L19.1465 30.7467L17.2532 28.8533Z" fill="#E2E8F0"/>
</svg>
