<svg width="64" height="64" viewBox="0 0 64 64" fill="none" xmlns="http://www.w3.org/2000/svg">
<g clip-path="url(#clip0_85_1997)">
<path d="M28.0039 44C28.0039 42.9391 28.4253 41.9217 29.1755 41.1716C29.9256 40.4214 30.943 40 32.0039 40C33.0648 40 34.0822 40.4214 34.8323 41.1716C35.5825 41.9217 36.0039 42.9391 36.0039 44C36.0039 45.0608 35.5825 46.0783 34.8323 46.8284C34.0822 47.5786 33.0648 48 32.0039 48C30.943 48 29.9256 47.5786 29.1755 46.8284C28.4253 46.0783 28.0039 45.0608 28.0039 44ZM28.3999 19.98C28.3466 19.4753 28.4001 18.9651 28.5567 18.4825C28.7134 17.9998 28.9697 17.5555 29.3092 17.1783C29.6486 16.8012 30.0636 16.4996 30.5272 16.2931C30.9907 16.0867 31.4925 15.98 31.9999 15.98C32.5073 15.98 33.0091 16.0867 33.4727 16.2931C33.9362 16.4996 34.3512 16.8012 34.6906 17.1783C35.0301 17.5555 35.2865 17.9998 35.4431 18.4825C35.5998 18.9651 35.6532 19.4753 35.5999 19.98L34.1999 34.008C34.143 34.5518 33.8867 35.0553 33.4804 35.4213C33.0742 35.7873 32.5467 35.9899 31.9999 35.9899C31.4531 35.9899 30.9256 35.7873 30.5194 35.4213C30.1131 35.0553 29.8568 34.5518 29.7999 34.008L28.3999 19.98Z" fill="black"/>
<path d="M41.092 10.052L37.408 6.27596L40.268 3.48395L42.756 6.03196L46.316 5.98796C47.857 5.96972 49.386 6.25979 50.8133 6.84111C52.2406 7.42243 53.5372 8.28326 54.6269 9.37299C55.7166 10.4627 56.5775 11.7593 57.1588 13.1866C57.7401 14.6139 58.0302 16.143 58.012 17.684L57.972 21.244L60.516 23.732C61.6178 24.8086 62.4933 26.0947 63.0911 27.5145C63.6888 28.9344 63.9967 30.4594 63.9967 32C63.9967 33.5405 63.6888 35.0655 63.0911 36.4854C62.4933 37.9052 61.6178 39.1913 60.516 40.268L57.968 42.756L58.012 46.316C58.0302 47.857 57.7401 49.386 57.1588 50.8133C56.5775 52.2406 55.7166 53.5372 54.6269 54.6269C53.5372 55.7166 52.2406 56.5775 50.8133 57.1588C49.386 57.7401 47.857 58.0302 46.316 58.012L42.756 57.972L40.268 60.516C39.1913 61.6178 37.9052 62.4933 36.4854 63.0911C35.0655 63.6888 33.5405 63.9967 32 63.9967C30.4594 63.9967 28.9344 63.6888 27.5145 63.0911C26.0947 62.4933 24.8086 61.6178 23.732 60.516L21.244 57.968L17.684 58.012C16.143 58.0302 14.6139 57.7401 13.1866 57.1588C11.7593 56.5775 10.4627 55.7166 9.37299 54.6269C8.28326 53.5372 7.42243 52.2406 6.84111 50.8133C6.25979 49.386 5.96972 47.857 5.98796 46.316L6.02796 42.756L3.48395 40.268C2.38212 39.1913 1.5066 37.9052 0.908847 36.4854C0.311096 35.0655 0.00317383 33.5405 0.00317383 32C0.00317383 30.4594 0.311096 28.9344 0.908847 27.5145C1.5066 26.0947 2.38212 24.8086 3.48395 23.732L6.03196 21.244L5.98796 17.684C5.96972 16.143 6.25979 14.6139 6.84111 13.1866C7.42243 11.7593 8.28326 10.4627 9.37299 9.37299C10.4627 8.28326 11.7593 7.42243 13.1866 6.84111C14.6139 6.25979 16.143 5.96972 17.684 5.98796L21.244 6.02796L23.732 3.48395C24.8086 2.38212 26.0947 1.5066 27.5145 0.908847C28.9344 0.311096 30.4594 0.00317383 32 0.00317383C33.5405 0.00317383 35.0655 0.311096 36.4854 0.908847C37.9052 1.5066 39.1913 2.38212 40.268 3.48395L37.408 6.27596C36.7038 5.5551 35.8626 4.9823 34.9339 4.59122C34.0052 4.20014 33.0077 3.99868 32 3.99868C30.9923 3.99868 29.9947 4.20014 29.066 4.59122C28.1373 4.9823 27.2961 5.5551 26.592 6.27596L22.912 10.052L17.632 9.98796C16.6247 9.97669 15.6253 10.1669 14.6925 10.5473C13.7598 10.9277 12.9124 11.4907 12.2003 12.2032C11.4882 12.9156 10.9256 13.7633 10.5457 14.6962C10.1658 15.6292 9.97617 16.6287 9.98796 17.636L10.052 22.908L6.27596 26.592C5.5551 27.2961 4.9823 28.1373 4.59122 29.066C4.20014 29.9947 3.99868 30.9923 3.99868 32C3.99868 33.0077 4.20014 34.0052 4.59122 34.9339C4.9823 35.8626 5.5551 36.7038 6.27596 37.408L10.052 41.088L9.98796 46.368C9.97669 47.3752 10.1669 48.3746 10.5473 49.3074C10.9277 50.2401 11.4907 51.0875 12.2032 51.7996C12.9156 52.5117 13.7633 53.0743 14.6962 53.4542C15.6292 53.8341 16.6287 54.0237 17.636 54.012L22.908 53.948L26.592 57.724C27.2961 58.4448 28.1373 59.0176 29.066 59.4087C29.9947 59.7998 30.9923 60.0012 32 60.0012C33.0077 60.0012 34.0052 59.7998 34.9339 59.4087C35.8626 59.0176 36.7038 58.4448 37.408 57.724L41.088 53.948L46.368 54.012C47.3752 54.0232 48.3746 53.8331 49.3074 53.4526C50.2401 53.0722 51.0875 52.5092 51.7996 51.7968C52.5117 51.0843 53.0743 50.2366 53.4542 49.3037C53.8341 48.3707 54.0237 47.3712 54.012 46.364L53.948 41.092L57.724 37.408C58.4448 36.7038 59.0176 35.8626 59.4087 34.9339C59.7998 34.0052 60.0012 33.0077 60.0012 32C60.0012 30.9923 59.7998 29.9947 59.4087 29.066C59.0176 28.1373 58.4448 27.2961 57.724 26.592L53.948 22.912L54.012 17.632C54.0232 16.6247 53.8331 15.6253 53.4526 14.6925C53.0722 13.7598 52.5092 12.9124 51.7968 12.2003C51.0843 11.4882 50.2366 10.9256 49.3037 10.5457C48.3707 10.1658 47.3712 9.97617 46.364 9.98796L41.092 10.052Z" fill="black"/>
</g>
<defs>
<clipPath id="clip0_85_1997">
<rect width="64" height="64" fill="white"/>
</clipPath>
</defs>
</svg>
